<svg xmlns="http://www.w3.org/2000/svg" width="727" height="433">
    <g fill="white" fill-rule="evenodd">
        <rect width="727" height="433" opacity=".2" rx="32"/>
        <path d="M695 0c17.673 0 32 14.327 32 32v369c0 17.673-14.327 32-32 32H32c-17.673 0-32-14.327-32-32V32C0 14.327 14.327 0 32 0h663Zm0 26H35a9 9 0 0 0-9 9v362a9 9 0 0 0 9 9h660a9 9 0 0 0 9-9V35a9 9 0 0 0-9-9Z"/>
        <g transform="translate(200 74)">
            <rect width="44" height="8" x="49" y="3" rx="4"/>
            <rect width="20" height="8" x="98" y="3" rx="4"/>
            <rect width="31" height="8" x="123" y="3" rx="4"/>
            <rect width="31" height="8" x="49" y="23" rx="4"/>
            <rect width="31" height="8" x="49" y="72" rx="4"/>
            <rect width="31" height="8" x="146" y="105" rx="4"/>
            <rect width="59" height="12" x="169" rx="5"/>
            <rect width="54" height="12" x="233" rx="5"/>
            <rect width="59" height="12" x="204" y="19" rx="5"/>
            <rect width="31" height="12" x="169" y="19" rx="5"/>
            <rect width="31" height="12" x="169" y="34" rx="5"/>
            <rect width="31" height="12" x="169" y="49" rx="5"/>
            <rect width="16" height="12" x="169" y="68" rx="5"/>
            <rect width="59" height="12" x="204" y="34" rx="5"/>
            <rect width="69" height="12" x="204" y="49" rx="5"/>
            <rect width="69" height="12" x="190" y="68" rx="5"/>
            <rect width="31" height="8" x="123" y="3" rx="4"/>
            <rect width="69" height="8" x="85" y="23" rx="4"/>
            <rect width="69" height="8" x="85" y="72" rx="4"/>
            <rect width="44" height="8" y="72" rx="4"/>
        </g>
        <g transform="translate(151 191)">
            <rect width="36" height="12" x="18" rx="5"/>
            <rect width="36" height="12" x="59" rx="5"/>
            <rect width="44" height="12" y="16" rx="5"/>
            <rect width="44" height="12" x="10" y="32" rx="5"/>
            <rect width="44" height="12" x="59" y="32" rx="5"/>
            <rect width="44" height="12" x="13" y="144" rx="5"/>
            <rect width="44" height="12" x="62" y="144" rx="5"/>
            <rect width="76" height="12" x="5" y="48" rx="5"/>
            <rect width="59" height="12" x="50" y="64" rx="5"/>
            <rect width="76" height="12" x="36" y="95" rx="5"/>
            <rect width="48" height="11" x="50" y="80" rx="5"/>
            <rect width="66" height="12" x="48" y="16" rx="5"/>
            <rect width="28" height="12" x="86" y="48" rx="5"/>
            <rect width="28" height="12" x="18" y="80" rx="5"/>
            <rect width="48" height="11" x="50" y="111" rx="5"/>
            <rect width="28" height="12" x="18" y="111" rx="5"/>
            <rect width="28" height="12" x="4" y="95" rx="5"/>
            <rect width="36" height="12" x="10" y="64" rx="5"/>
            <rect width="59" height="12" x="50" y="127" rx="5"/>
            <rect width="36" height="12" x="10" y="127" rx="5"/>
        </g>
        <g transform="matrix(1 0 0 -1 459 347)">
            <rect width="36" height="12" x="18" rx="5"/>
            <rect width="36" height="12" x="59" rx="5"/>
            <rect width="44" height="12" y="16" rx="5"/>
            <rect width="44" height="12" x="10" y="32" rx="5"/>
            <rect width="44" height="12" x="59" y="32" rx="5"/>
            <rect width="44" height="12" x="13" y="144" rx="5"/>
            <rect width="44" height="12" x="62" y="144" rx="5"/>
            <rect width="76" height="12" x="5" y="48" rx="5"/>
            <rect width="59" height="12" x="50" y="64" rx="5"/>
            <rect width="76" height="12" x="36" y="95" rx="5"/>
            <rect width="48" height="11" x="50" y="80" rx="5"/>
            <rect width="66" height="12" x="48" y="16" rx="5"/>
            <rect width="28" height="12" x="86" y="48" rx="5"/>
            <rect width="28" height="12" x="18" y="80" rx="5"/>
            <rect width="48" height="11" x="50" y="111" rx="5"/>
            <rect width="28" height="12" x="18" y="111" rx="5"/>
            <rect width="28" height="12" x="4" y="95" rx="5"/>
            <rect width="36" height="12" x="10" y="64" rx="5"/>
            <rect width="59" height="12" x="50" y="127" rx="5"/>
            <rect width="36" height="12" x="10" y="127" rx="5"/>
        </g>
        <g transform="matrix(1 0 0 -1 305 347)">
            <rect width="36" height="12" x="18" rx="5"/>
            <rect width="36" height="12" x="59" rx="5"/>
            <rect width="44" height="12" y="16" rx="5"/>
            <rect width="44" height="12" x="10" y="32" rx="5"/>
            <rect width="44" height="12" x="59" y="32" rx="5"/>
            <rect width="44" height="12" x="13" y="144" rx="5"/>
            <rect width="44" height="12" x="62" y="144" rx="5"/>
            <rect width="76" height="12" x="5" y="48" rx="5"/>
            <rect width="59" height="12" x="50" y="64" rx="5"/>
            <rect width="76" height="12" x="36" y="95" rx="5"/>
            <rect width="48" height="11" x="50" y="80" rx="5"/>
            <rect width="66" height="12" x="48" y="16" rx="5"/>
            <rect width="28" height="12" x="86" y="48" rx="5"/>
            <rect width="28" height="12" x="18" y="80" rx="5"/>
            <rect width="48" height="11" x="50" y="111" rx="5"/>
            <rect width="28" height="12" x="18" y="111" rx="5"/>
            <rect width="28" height="12" x="4" y="95" rx="5"/>
            <rect width="36" height="12" x="10" y="64" rx="5"/>
            <rect width="59" height="12" x="50" y="127" rx="5"/>
            <rect width="36" height="12" x="10" y="127" rx="5"/>
        </g>
    </g>
</svg>